HIERARCHY
ROOT Hips
{
	OFFSET 0.00000 0.00000 0.00000
	CHANNELS 6 Xposition Yposition Zposition Zrotation Yrotation Xrotation 
	JOINT LHipJoint
	{
		OFFSET 0 0 0
		CHANNELS 3 Zrotation Yrotation Xrotation
		JOINT LeftHip
		{
			OFFSET 1.58895 -1.83665 0.71753
			CHANNELS 3 Zrotation Yrotation Xrotation
			JOINT LeftKnee
			{
				OFFSET 2.50528 -6.88321 0.00000
				CHANNELS 3 Zrotation Yrotation Xrotation
				JOINT LeftAnkle
				{
					OFFSET 2.63244 -7.23257 0.00000
					CHANNELS 3 Zrotation Yrotation Xrotation
					JOINT LeftToe
					{
						OFFSET 0.23691 -0.65090 1.72750
						CHANNELS 3 Zrotation Yrotation Xrotation
						End Site
						{
							OFFSET 0.00000 -0.00000 0.92561
						}
					}
				}
			}
		}
	}
	JOINT RHipJoint
	{
		OFFSET 0 0 0
		CHANNELS 3 Zrotation Yrotation Xrotation
		JOINT RightHip
		{
			OFFSET -1.51435 -1.83665 0.71753
			CHANNELS 3 Zrotation Yrotation Xrotation
			JOINT RightKnee
			{
				OFFSET -2.54551 -6.99375 0.00000
				CHANNELS 3 Zrotation Yrotation Xrotation
				JOINT RightAnkle
				{
					OFFSET -2.66027 -7.30903 0.00000
					CHANNELS 3 Zrotation Yrotation Xrotation
					JOINT RightToe
					{
						OFFSET -0.22981 -0.63138 2.03959
						CHANNELS 3 Zrotation Yrotation Xrotation
						End Site
						{
							OFFSET -0.00000 -0.00000 1.07060
						}
					}
				}
			}
		}
	}
	JOINT lowerback
	{
		OFFSET 0 0 0
		CHANNELS 3 Zrotation Yrotation Xrotation
		JOINT Chest
		{
			OFFSET -0.02651 1.86275 -0.11152
			CHANNELS 3 Zrotation Yrotation Xrotation
			JOINT Chest2
			{
				OFFSET 0.01019 1.86224 0.04087
				CHANNELS 3 Zrotation Yrotation Xrotation
				JOINT lowerneck
				{
					OFFSET 0 0 0
					CHANNELS 3 Zrotation Yrotation Xrotation
					JOINT Neck
					{
						OFFSET -0.01926 1.80512 0.08867
						CHANNELS 3 Zrotation Yrotation Xrotation
						JOINT Head
						{
							OFFSET 0.05516 1.76451 -0.38475
							CHANNELS 3 Zrotation Yrotation Xrotation
							End Site
							{
								OFFSET 0.01592 1.82587 -0.14001
							}
						}
					}
				}
				JOINT LeftCollar
				{
					OFFSET 0 0 0
					CHANNELS 3 Zrotation Yrotation Xrotation
					JOINT LeftShoulder
					{
						OFFSET 3.47116 1.51376 0.14491
CHANNELS 3 Zrotation Xrotation Yrotation
						JOINT LeftElbow
						{
OFFSET 0 -4.780950 0.000000
CHANNELS 3 Zrotation Xrotation Yrotation
							JOINT LeftWrist
							{
OFFSET 0 -3.586150 -0.000000
CHANNELS 3 Zrotation Xrotation Yrotation
								JOINT lhand
								{
									OFFSET 0 0 0
CHANNELS 3 Zrotation Xrotation Yrotation
									JOINT LFingers
									{
OFFSET 0 -0.659810 0.000000
CHANNELS 3 Zrotation Xrotation Yrotation
										End Site
										{
OFFSET 0 -0.531960 0.000000
										}
									}
								}
								JOINT LThumb
								{
OFFSET 0 0.000000 0.000000
CHANNELS 3 Zrotation Xrotation Yrotation
									End Site
									{
OFFSET 0 -0.540080 0.540080
									}
								}
							}
						}
					}
				}
				JOINT RightCollar
				{
					OFFSET 0 0 0
					CHANNELS 3 Zrotation Yrotation Xrotation
					JOINT RightShoulder
					{
						OFFSET -3.31725 1.61216 0.35156
CHANNELS 3 Zrotation Xrotation Yrotation
						JOINT RightElbow
						{
OFFSET 0 -4.489130 0.000000
CHANNELS 3 Zrotation Xrotation Yrotation
							JOINT RightWrist
							{
OFFSET 0 -3.705100 0.000000
CHANNELS 3 Zrotation Xrotation Yrotation
								JOINT rhand
								{
									OFFSET 0 0 0
CHANNELS 3 Zrotation Xrotation Yrotation
									JOINT RFingers
									{
OFFSET 0 -0.449140 0.000000
CHANNELS 3 Zrotation Xrotation Yrotation
										End Site
										{
OFFSET 0 -0.362110 0.000000
										}
									}
								}
								JOINT RThumb
								{
OFFSET 0 0.000000 0.000000
CHANNELS 3 Zrotation Xrotation Yrotation
									End Site
									{
OFFSET 0 -0.367630 0.367630
									}
								}
							}
						}
					}
				}
			}
		}
	}
}
MOTION
Frames: 8
Frame Time: .0083333
-0.4578 18.8296 4.1606 2.7646 -18.9816 9.2113 0.0000 0.0000 0.0000 -17.8029 6.3350 -21.3239 1.4528 7.6187 21.5618 0.8133 6.2876 -20.4477 8.2321 -16.2874 -53.3945 0.0000 0.0000 0.0000 0.0000 0.0000 0.0000 0.0000 0.0000 0.0000 -0.0000 -0.0000 0.0000 -0.0000 -0.0000 0.0000 -1.2237 -7.7621 33.6994 -2.6299 -10.5030 9.0426 1.6304 -4.9787 -7.2887 0.7473 4.2711 -26.5901 -4.9051 7.2943 26.7415 -0.6770 2.4592 13.7519 0.0000 -0.0000 0.0000 -24.0726 -50.3473 -87.0726 31.4466 -42.1015 12.3682 59.1669 -64.1039 57.1357 0.0 0.0 0.0 -7.1250 0.0 0.0 1.1038 -41.6914 1.5586 0.0000 -0.0000 0.0000 -40.9265 -29.356 24.956 -113.8822 -57.7312 -80.525 -34.7646 -27.8044 22.1462 0.0 0.0 0.0 7.1250 0.0 -0.0 -6.5323 56.2158 1.8023
-0.4581 18.8303 4.1663 2.7805 -18.8651 9.2931 0.0000 0.0000 0.0000 -17.8348 6.3519 -21.4298 1.4521 7.6171 21.5570 0.8107 6.2162 -20.3708 8.2480 -16.2987 -53.4512 0.0000 0.0000 0.0000 0.0000 0.0000 0.0000 0.0000 0.0000 0.0000 -0.0000 -0.0000 0.0000 -0.0000 -0.0000 0.0000 -1.2004 -7.7825 33.5389 -2.6126 -10.5168 9.0499 1.6249 -4.9886 -7.2213 0.9129 4.4335 -26.5850 -5.1286 7.5280 26.7166 -0.7470 2.5445 13.7687 0.0000 -0.0000 0.0000 -23.6342 -50.3818 -86.9977 31.7460 -42.3437 12.5694 59.3808 -64.8994 57.1993 0.0 0.0 0.0 -7.1250 0.0 0.0 1.1202 -41.8396 1.5819 0.0000 -0.0000 0.0000 -41.1996 -29.2278 25.0379 -114.1449 -57.6783 -80.7471 -34.8368 -28.0097 22.1719 0.0 0.0 0.0 7.1250 0.0 -0.0 -6.6119 56.2623 1.8318
-0.4574 18.8312 4.1734 2.8034 -18.7891 9.3066 0.0000 0.0000 0.0000 -17.8639 6.3117 -21.4233 1.4522 7.6173 21.5576 0.8148 6.1609 -20.3714 8.2247 -16.2820 -53.3680 0.0000 0.0000 0.0000 0.0000 0.0000 0.0000 0.0000 0.0000 0.0000 -0.0000 -0.0000 0.0000 -0.0000 -0.0000 0.0000 -1.2009 -7.7810 33.4247 -2.6180 -10.5136 9.0801 1.6047 -4.9906 -7.1467 1.0560 4.5903 -26.6314 -5.3216 7.7549 26.7038 -0.8015 2.6276 13.7992 0.0000 -0.0000 0.0000 -23.1424 -50.3999 -86.8456 32.1225 -42.6446 12.8237 59.6246 -65.6189 57.2418 0.0 0.0 0.0 -7.1250 0.0 0.0 1.1604 -41.9889 1.6389 0.0000 -0.0000 0.0000 -41.488 -29.1314 25.1475 -114.4313 -57.6199 -80.9891 -34.804 -28.3057 22.0777 0.0 0.0 0.0 7.1250 0.0 -0.0 -6.5852 56.1472 1.806
-0.4556 18.8321 4.1819 2.7989 -18.6935 9.2913 0.0000 0.0000 0.0000 -17.8464 6.1727 -21.3365 1.4530 7.6194 21.5638 0.8223 6.1419 -20.4303 8.1827 -16.2520 -53.2182 0.0000 0.0000 0.0000 0.0000 0.0000 0.0000 0.0000 0.0000 0.0000 -0.0000 -0.0000 0.0000 -0.0000 -0.0000 0.0000 -1.1777 -7.7688 33.3610 -2.6145 -10.4896 9.0834 1.5818 -4.9805 -7.1228 1.1312 4.7017 -26.6167 -5.4464 7.9242 26.7154 -0.8302 2.6893 13.8191 -0.0000 -0.0000 0.0000 -22.6715 -50.3413 -86.7056 32.4928 -42.9365 13.0753 59.8897 -65.9208 57.0718 0.0 0.0 0.0 -7.1250 0.0 0.0 1.3645 -42.0094 1.9273 -0.0000 -0.0000 0.0000 -41.7806 -28.911 25.3534 -114.8487 -57.5333 -81.3414 -34.7715 -28.5264 21.9933 0.0 0.0 0.0 7.1250 0.0 -0.0 -6.5578 56.043 1.7819
-0.4543 18.8317 4.1908 2.7376 -18.5626 9.2860 0.0000 0.0000 0.0000 -17.7787 6.1509 -21.2966 1.4537 7.6211 21.5689 0.8244 6.0644 -20.3955 8.1745 -16.2461 -53.1887 0.0000 0.0000 0.0000 0.0000 0.0000 0.0000 0.0000 0.0000 0.0000 -0.0000 -0.0000 0.0000 -0.0000 -0.0000 0.0000 -1.0549 -7.7663 32.9168 -2.6959 -10.4407 9.5217 1.4924 -4.9630 -7.1923 1.2791 4.7892 -26.5616 -5.5935 8.0371 26.7470 -0.8916 2.7315 13.8419 -0.0000 0.0000 0.0000 -22.065 -50.2252 -86.6149 32.8744 -43.2333 13.3359 60.4529 -66.2033 56.6363 0.0 0.0 0.0 -7.1250 0.0 0.0 1.8546 -42.0081 2.6198 -0.0000 0.0000 0.0000 -42.0657 -28.6007 25.6361 -115.3435 -57.4282 -81.7586 -34.8628 -28.6761 21.9498 0.0 0.0 0.0 7.1250 0.0 -0.0 -6.6665 56.0142 1.8069
-0.4528 18.8312 4.1987 2.6719 -18.4555 9.2881 0.0000 0.0000 0.0000 -17.7114 6.1319 -21.2684 1.4550 7.6243 21.5785 0.8231 6.0395 -20.3651 8.2031 -16.2666 -53.2909 0.0000 0.0000 0.0000 0.0000 0.0000 0.0000 0.0000 0.0000 0.0000 -0.0000 -0.0000 0.0000 -0.0000 -0.0000 0.0000 -1.0155 -7.7185 32.8084 -2.6566 -10.3643 9.5234 1.4731 -4.9299 -7.1417 1.4075 4.8659 -26.5382 -5.7757 8.1520 26.7338 -0.9626 2.7685 13.8542 -0.0000 0.0000 0.0000 -21.4594 -50.0019 -86.44 33.4178 -43.6487 13.7096 61.0282 -66.5968 56.2452 0.0 0.0 0.0 -7.1250 0.0 0.0 2.3174 -42.0476 3.274 -0.0000 0.0000 0.0000 -42.4955 -28.3801 25.9202 -115.7549 -57.3389 -82.1051 -35.167 -28.8974 21.8615 0.0 0.0 0.0 7.1250 0.0 -0.0 -7.0228 55.9839 1.899
-0.4510 18.8314 4.2047 2.6319 -18.3717 9.2899 0.0000 0.0000 0.0000 -17.6652 6.0523 -21.2340 1.4575 7.6306 21.5975 0.8213 6.0568 -20.3601 8.2192 -16.2781 -53.3484 0.0000 0.0000 0.0000 0.0000 0.0000 0.0000 0.0000 0.0000 0.0000 -0.0000 -0.0000 0.0000 -0.0000 -0.0000 0.0000 -1.0004 -7.6619 32.7391 -2.6386 -10.2883 9.4785 1.4525 -4.8937 -7.1624 1.6685 4.9978 -26.4174 -6.0294 8.3098 26.6838 -1.0767 2.8308 13.8440 0.0000 0.0000 0.0000 -20.7563 -49.6438 -86.1591 34.1104 -44.1664 14.19 61.427 -67.1662 56.0902 0.0 0.0 0.0 -7.1250 0.0 0.0 2.5532 -42.1545 3.6077 0.0000 0.0000 0.0000 -42.8925 -28.1945 26.3118 -116.0924 -57.2644 -82.3891 -35.4037 -29.085 21.8659 0.0 0.0 0.0 7.1250 0.0 -0.0 -7.2929 56.0445 1.9833
-0.4490 18.8311 4.2152 2.5501 -18.3320 9.2409 0.0000 0.0000 0.0000 -17.5724 5.9810 -21.1060 1.4606 7.6382 21.6205 0.8294 6.0655 -20.4439 8.2023 -16.2661 -53.2881 0.0000 0.0000 0.0000 0.0000 0.0000 0.0000 0.0000 0.0000 0.0000 -0.0000 -0.0000 0.0000 -0.0000 -0.0000 0.0000 -0.9349 -7.6068 32.7208 -2.6607 -10.2041 9.4318 1.3639 -4.8519 -7.2247 2.0460 5.1620 -26.2625 -6.3520 8.4894 26.6507 -1.2337 2.9049 13.8464 0.0000 -0.0000 0.0000 -19.9534 -49.3563 -85.9235 34.8284 -44.6892 14.6926 61.6366 -67.7896 55.8222 0.0 0.0 0.0 -7.1250 0.0 0.0 2.8161 -42.0894 3.9792 0.0000 -0.0000 0.0000 -43.195 -28.0236 26.8256 -116.3791 -57.2 -82.6303 -35.4295 -29.1666 22.0075 0.0 0.0 0.0 7.1250 0.0 -0.0 -7.3089 56.2134 2.0177
